<svg width="16" height="16" viewBox="0 0 16 16" fill="none" xmlns="http://www.w3.org/2000/svg">
<rect width="16" height="16" rx="8" fill="black"/>
<path fill-rule="evenodd" clip-rule="evenodd" d="M16 8C16 12.4183 12.4183 16 8 16C3.58172 16 0 12.4183 0 8C0 3.58172 3.58172 0 8 0C12.4183 0 16 3.58172 16 8ZM10.9912 14.0742C10.0892 14.5192 9.0738 14.7692 8 14.7692C4.26146 14.7692 1.23077 11.7385 1.23077 8C1.23077 4.26146 4.26146 1.23077 8 1.23077C11.7385 1.23077 14.7692 4.26146 14.7692 8C14.7692 10.1838 13.7351 12.126 12.1299 13.3638L9.20493 8.67969C9.71334 8.53906 10.11 8.28846 10.3948 7.92788C10.6797 7.5637 10.8221 7.08233 10.8221 6.48377C10.8221 5.69411 10.6292 5.10998 10.2434 4.73137C9.85757 4.34916 9.26262 4.15805 8.45853 4.15805H5.39183V11.6923H6.83053V8.79868H7.75L10.9912 14.0742ZM6.83053 7.61418H8.64784C9.09856 7.61418 9.32392 7.36358 9.32392 6.86238V6.08894C9.32392 5.83654 9.27344 5.65625 9.17248 5.54808C9.07512 5.4363 8.90024 5.38041 8.64784 5.38041H6.83053V7.61418Z" fill="white"/>
</svg>
